PathFileType	4	(X/Y/Z)	C:/Users/opensim2020/Desktop/walking_exp_matlab/subject02_walking14_straight_03.trc																																																																																																																									
DataRate	CameraRate	NumFrames	NumMarkers	Units	OrigDataRate	OrigDataStartFrame	OrigNumFrames																																																																																																																					
100	100	5	41	mm	100	1239	127																																																																																																																					
Frame#	Time	LFHD			RFHD			LBHD			RBHD			C7			T10			CLAV			STRN			RBAK			LSHO			LUPA			LELB			LFRM			LWRA			LWRB			LFIN			RSHO			RUPA			RELB			RFRM			RWRA			RWRB			RFIN			LASI			RASI			LPSI			RPSI			LTHI			LKNE			LTIB			LANK			LHEE			LTOE			RTHI			RKNE			RTIB			RANK			RHEE			RTOE			*39			*40		
		X1	Y1	Z1	X2	Y2	Z2	X3	Y3	Z3	X4	Y4	Z4	X5	Y5	Z5	X6	Y6	Z6	X7	Y7	Z7	X8	Y8	Z8	X9	Y9	Z9	X10	Y10	Z10	X11	Y11	Z11	X12	Y12	Z12	X13	Y13	Z13	X14	Y14	Z14	X15	Y15	Z15	X16	Y16	Z16	X17	Y17	Z17	X18	Y18	Z18	X19	Y19	Z19	X20	Y20	Z20	X21	Y21	Z21	X22	Y22	Z22	X23	Y23	Z23	X24	Y24	Z24	X25	Y25	Z25	X26	Y26	Z26	X27	Y27	Z27	X28	Y28	Z28	X29	Y29	Z29	X30	Y30	Z30	X31	Y31	Z31	X32	Y32	Z32	X33	Y33	Z33	X34	Y34	Z34	X35	Y35	Z35	X36	Y36	Z36	X37	Y37	Z37	X38	Y38	Z38	X39	Y39	Z39	X40	Y40	Z40	X41	Y41	Z41
																																																																																																																												
1	0	-795.56165	1693.59497	1482.63989	-809.78412	1673.00818	1625.09143	-927.68286	1625.89246	1461.33508	-955.0744	1604.31677	1600.86841	-998.98413	1492.18225	1516.30896	-1081.43921	1225.15051	1531.54102	-868.00543	1410.65723	1520.70679	-837.06128	1233.34583	1526.25562	-1083.87317	1325.77844	1575.37134	-906.74023	1459.86377	1346.20935	-884.27667	1257.55383	1273.52307	-855.83228	1114.86951	1273.43176	-790.75781	1003.25208	1310.66431	-719.37317	930.87616	1407.80627	-731.85095	905.75488	1357.68091	-690.34631	862.92346	1388.64722	-953.10248	1453.53259	1707.48389	-1049.61292	1292.96863	1786.61462	-1082.96667	1151.98035	1818.46704	-1081.98669	1033.12134	1849.79163	-1054.23621	899.48999	1845.11975	-1104.0072	904.80579	1867.43762	-1079.32288	837.24365	1878.36243	-909.05243	931.89832	1399.26282	-871.49603	944.94214	1653.8335	-1097.00122	1001.56366	1505.78101	-1087.72815	1010.89398	1617.26196	-1046.04126	630.79395	1395.14575	-1124.15491	447.21045	1449.66943	-1230.17603	284.34906	1461.66528	-1288.1405	70.7847	1516.021	-1334.08862	51.00274	1565.90454	-1137.18298	25.98181	1515.29712	-895.96771	665.57544	1777.01917	-827.32349	467.71088	1760.21912	-796.40466	288.41071	1798.5127	-733.0835	99.5118	1796.55457	-743.6474	31.81291	1748.6228	-566.83472	96.35779	1800.05017	-901.2666	1762.96667	1564.69958	2845.84863	1034.34326	-3356.97632
2	0.01	-784.6239	1692.08337	1485.64563	-798.35986	1671.3042	1628.04834	-916.46558	1623.62939	1464.57239	-943.39972	1601.89063	1604.13867	-987.12537	1489.78174	1520.12805	-1068.96582	1222.6687	1535.51453	-856.02032	1408.4082	1523.38367	-824.37701	1231.21631	1528.79468	-1071.1825	1323.30066	1579.68225	-895.75665	1457.77905	1349.40308	-873.14368	1255.60034	1276.2677	-844.24597	1112.93884	1276.76208	-777.41156	1002.83997	1315.42065	-705.26324	933.03223	1413.80469	-716.97827	907.18237	1363.74316	-674.68225	865.77667	1395.51636	-939.66089	1450.98975	1711.02368	-1034.9292	1289.94922	1790.61389	-1068.72498	1149.67004	1823.37	-1067.17383	1030.6554	1854.91699	-1039.06885	896.92633	1850.1991	-1088.8064	902.3573	1872.8949	-1063.84619	835.06134	1884.12256	-896.78271	929.49756	1402.12	-857.84729	942.53906	1656.3905	-1084.14954	998.97815	1509.45593	-1074.47913	1008.43707	1621.06189	-1036.85413	630.13458	1396.84595	-1116.01746	446.73715	1450.69983	-1225.13171	285.9816	1461.98132	-1287.16772	73.13023	1515.5686	-1333.67261	54.44647	1565.15515	-1137.35852	25.97547	1515.276	-882.79547	663.10883	1779.44458	-810.70142	466.20172	1761.13647	-777.39496	286.87601	1798.11011	-710.20099	99.60497	1795.10303	-720.35468	31.96528	1746.73853	-543.80829	98.71751	1797.05237	-890.43939	1760.62109	1567.91125	2845.31714	1034.19263	-3360.48584
3	0.02	-773.63916	1690.64844	1488.52954	-786.80109	1669.755	1630.96826	-905.13666	1621.61841	1467.88086	-931.52734	1599.67859	1607.51001	-975.03925	1487.44836	1524.11121	-1056.24658	1220.29797	1539.40186	-843.6413	1406.53333	1526.46265	-811.8233	1229.39319	1531.37	-1058.25586	1320.78076	1583.97156	-884.79639	1455.8999	1352.70081	-861.7724	1254.08618	1279.27576	-832.79083	1111.14722	1280.02954	-764.55402	1002.40619	1319.67334	-690.90979	935.34534	1419.56287	-701.94958	908.71136	1369.68054	-659.64941	868.59064	1401.83643	-926.18506	1448.66443	1714.73535	-1020.88934	1287.44739	1794.73584	-1053.83691	1147.0863	1828.23462	-1052.04321	1027.95178	1860.03235	-1023.48358	894.50269	1855.36743	-1073.20984	899.97546	1878.33569	-1047.84485	832.98834	1889.91089	-883.83179	927.20819	1405.15881	-844.00354	940.44452	1659.26721	-1070.90906	996.56799	1513.02612	-1061.11646	1006.17444	1624.74768	-1026.24414	628.87372	1398.76196	-1107.01978	446.32373	1451.65942	-1219.41553	287.7037	1462.19861	-1285.95825	76.00973	1514.72412	-1332.87903	58.4749	1564.24207	-1137.36792	26.24319	1515.11279	-867.66943	661.26672	1781.78577	-792.91296	465.16348	1762.06787	-759.01605	285.54422	1797.22632	-690.81512	98.65961	1792.7157	-700.50677	31.05734	1743.87549	-524.36261	98.28547	1794.44592	-879.45526	1758.5907	1571.16455	2845.92041	1034.49829	-3357.08887
4	0.03	-762.70941	1689.41418	1491.229	-775.05701	1668.55676	1633.92224	-893.78674	1619.75195	1471.19055	-919.53247	1597.74573	1610.88	-962.92914	1485.30652	1528.17822	-1043.32947	1218.19214	1543.22681	-831.20898	1404.88806	1529.54028	-798.7724	1227.84949	1534.33679	-1045.24365	1318.16919	1588.05933	-873.75073	1454.23608	1356.08948	-851.06409	1252.86768	1282.61169	-821.84888	1109.60815	1283.14648	-751.87079	1002.28906	1323.85425	-677.63245	937.3125	1424.20435	-687.85547	909.95135	1374.72205	-644.37512	871.16486	1407.69067	-912.66437	1446.59106	1718.50232	-1006.40173	1285.29297	1799.39355	-1038.71558	1144.69873	1833.13318	-1036.45618	1025.68152	1865.03052	-1007.49286	892.33264	1860.76904	-1057.21863	897.75629	1883.82373	-1031.51904	831.17047	1895.81201	-870.44812	925.03369	1408.3739	-829.87646	938.66492	1662.20789	-1057.198	994.297	1516.3927	-1047.54077	1004.19397	1628.33716	-1015.11255	628.32379	1400.21973	-1097.22314	446.01266	1452.64185	-1212.79199	289.63162	1462.25391	-1284.41272	79.38659	1513.96143	-1331.5708	62.77649	1563.17578	-1137.15295	25.99178	1514.8988	-850.56622	660.02014	1784.17017	-774.51508	464.34647	1762.45264	-741.18945	284.28162	1796.05115	-674.62836	96.56114	1789.3562	-684.60669	30.19561	1740.37549	-508.16394	95.39999	1792.47058	-868.4234	1757.09668	1574.37524	2846.00537	1034.22876	-3357.0769
5	0.04	-751.04474	1688.81433	1494.19946	-763.20294	1667.64221	1636.84375	-882.15259	1618.10205	1474.60425	-907.45239	1596.1698	1614.37195	-950.76733	1483.55237	1532.38074	-1030.21411	1216.25159	1547.03308	-818.56287	1403.55884	1532.85706	-785.37915	1226.73926	1537.62659	-1032.026	1316.35522	1592.58936	-862.6651	1452.91113	1359.59839	-840.40179	1251.66296	1285.64233	-811.02283	1108.32739	1286.18311	-739.8938	1002.20673	1327.60632	-664.27234	939.25342	1428.40625	-674.68219	911.23486	1379.00586	-630.02374	873.3952	1412.7345	-899.09222	1444.88184	1722.4231	-991.30988	1282.65125	1803.38281	-1023.01825	1142.16248	1837.90308	-1020.47015	1023.78741	1870.13037	-991.07843	890.39728	1866.0592	-1040.82764	895.68408	1889.21509	-1014.59863	829.33276	1901.59277	-856.46234	922.94287	1411.65479	-815.13611	937.39838	1665.58484	-1043.2948	992.37878	1519.71008	-1033.6637	1002.24127	1631.73108	-1002.55127	627.06085	1402.07556	-1086.7002	445.76291	1453.58667	-1205.5741	291.95975	1462.34985	-1282.53784	83.35049	1513.02588	-1330.3562	68.69286	1561.80029	-1137.00159	25.94863	1514.69458	-831.66437	659.30774	1786.44019	-756.15753	463.48029	1762.50378	-724.22943	282.90643	1794.82837	-660.65546	94.69242	1786.45972	-671.41693	28.2691	1736.08667	-494.81488	90.9575	1790.07861	-857.18707	1755.61853	1577.58484	2845.97559	1034.3031	-3357.07764
